solid handle
facet normal 0.891289100092813 -1.74408287301557e-015 -0.453435486101103
  outer loop
    vertex 71.2762206168381 -14.4999999999998 40.0000000000001
    vertex 73.9367256300379 30.0 45.2295843437331
    vertex 73.9367256300381 -14.4999999999999 45.2295843437332
  endloop
endfacet
facet normal 0.929959787084701 -1.31521394341414e-015 -0.367661249529208
  outer loop
    vertex 73.9367256300379 30.0 45.2295843437331
    vertex 71.2762206168381 -14.4999999999998 40.0000000000001
    vertex 68.1944205080791 -14.4999999999997 33.9423028638099
  endloop
endfacet
facet normal 0.929959787084701 -1.31521394341414e-015 -0.367661249529208
  outer loop
    vertex 73.9367256300379 30.0 45.2295843437331
    vertex 68.1944205080791 -14.4999999999997 33.9423028638099
    vertex 68.1944205080792 30.0000000000001 33.9423028638097
  endloop
endfacet
facet normal 0.929959787084701 -1.31521394341414e-015 -0.367661249529208
  outer loop
    vertex 73.9367256300379 30.0 45.2295843437331
    vertex 68.1944205080792 30.0000000000001 33.9423028638097
    vertex 71.2762206168383 30.0000000000005 40.0
  endloop
endfacet
facet normal 0.929959787084701 -1.31521394341414e-015 -0.367661249529208
  outer loop
    vertex 73.9367256300379 30.0 45.2295843437331
    vertex 77.4653231614083 -14.4999999999999 57.3920590418486
    vertex 73.9367256300381 -14.4999999999999 45.2295843437332
  endloop
endfacet
facet normal 0.982333901248629 -7.62322556187256e-016 -0.187136598391786
  outer loop
    vertex 77.4653231614083 -14.4999999999999 57.3920590418486
    vertex 73.9367256300379 30.0 45.2295843437331
    vertex 77.4653231614085 30.0000000000001 57.3920590418484
  endloop
endfacet
facet normal 0.510220306215164 1.4318533978653e-015 0.860043742565286
  outer loop
    vertex 41.6069445839404 -14.4999999999991 130.0
    vertex 50.9512871929337 30.0000000000007 124.456475744921
    vertex 41.6069445839402 30.0000000000008 130.0
  endloop
endfacet
facet normal 0.588792519888518 1.29597606019469e-015 0.808284212714395
  outer loop
    vertex 50.9512871929337 30.0000000000007 124.456475744921
    vertex 41.6069445839404 -14.4999999999991 130.0
    vertex 50.9512871929335 -14.4999999999991 124.456475744921
  endloop
endfacet
facet normal 0.729650411189252 -2.376877766894e-015 -0.683820354662945
  outer loop
    vertex 60.4412960542224 30.0 23.9290190605967
    vertex 68.1944205080791 -14.4999999999997 33.9423028638099
    vertex 60.4412960542223 -14.4999999999999 23.9290190605969
  endloop
endfacet
facet normal 0.844728150053892 -1.82562115307294e-015 -0.535195620784148
  outer loop
    vertex 68.1944205080791 -14.4999999999997 33.9423028638099
    vertex 60.4412960542224 30.0 23.9290190605967
    vertex 68.1944205080792 30.0000000000001 33.9423028638097
  endloop
endfacet
facet normal 0.588792519888519 -3.05235160566958e-015 -0.808284212714394
  outer loop
    vertex 50.951287192934 30.0000000000003 15.5435242550795
    vertex 41.6069445839405 -14.4999999999996 10.0000000000002
    vertex 41.6069445839403 30.0000000000001 9.99999999999999
  endloop
endfacet
facet normal 0.510220306215164 -3.23596581288118e-015 -0.860043742565286
  outer loop
    vertex 41.6069445839405 -14.4999999999996 10.0000000000002
    vertex 50.951287192934 30.0000000000003 15.5435242550795
    vertex 50.9512871929339 -14.4999999999997 15.5435242550797
  endloop
endfacet
facet normal -3.70281751764605e-016 -1.0 4.27822021311274e-015
  outer loop
    vertex 67.7702404253638 30.0000000000001 17.0604128591551
    vertex 41.6069445839403 30.0000000000001 9.99999999999999
    vertex 56.8653901088409 30.0000000000002 7.42474580965884
  endloop
endfacet
facet normal -3.70281751764605e-016 -1.0 4.27822021311274e-015
  outer loop
    vertex 41.6069445839403 30.0000000000001 9.99999999999999
    vertex 67.7702404253638 30.0000000000001 17.0604128591551
    vertex 50.951287192934 30.0000000000003 15.5435242550795
  endloop
endfacet
facet normal -3.70281751764605e-016 -1.0 4.27822021311274e-015
  outer loop
    vertex 50.951287192934 30.0000000000003 15.5435242550795
    vertex 67.7702404253638 30.0000000000001 17.0604128591551
    vertex 60.4412960542224 30.0 23.9290190605967
  endloop
endfacet
facet normal -3.70281751764605e-016 -1.0 4.27822021311274e-015
  outer loop
    vertex 60.4412960542224 30.0 23.9290190605967
    vertex 67.7702404253638 30.0000000000001 17.0604128591551
    vertex 76.6792586244472 30.0000000000001 28.5665518572253
  endloop
endfacet
facet normal -3.70281751764605e-016 -1.0 4.27822021311274e-015
  outer loop
    vertex 60.4412960542224 30.0 23.9290190605967
    vertex 76.6792586244472 30.0000000000001 28.5665518572253
    vertex 68.1944205080792 30.0000000000001 33.9423028638097
  endloop
endfacet
facet normal -3.70281751764605e-016 -1.0 4.27822021311274e-015
  outer loop
    vertex 68.1944205080792 30.0000000000001 33.9423028638097
    vertex 76.6792586244472 30.0000000000001 28.5665518572253
    vertex 82.4959247498279 30.0 40.0
  endloop
endfacet
facet normal -3.70281751764605e-016 -1.0 4.27822021311274e-015
  outer loop
    vertex 68.1944205080792 30.0000000000001 33.9423028638097
    vertex 82.4959247498279 30.0 40.0
    vertex 71.2762206168383 30.0000000000005 40.0
  endloop
endfacet
facet normal -3.70281751764605e-016 -1.0 4.27822021311274e-015
  outer loop
    vertex 71.2762206168383 30.0000000000005 40.0
    vertex 82.4959247498279 30.0 40.0
    vertex 73.9367256300379 30.0 45.2295843437331
  endloop
endfacet
facet normal -3.70281751764605e-016 -1.0 4.27822021311274e-015
  outer loop
    vertex 73.9367256300379 30.0 45.2295843437331
    vertex 82.4959247498279 30.0 40.0
    vertex 83.2776695155264 30.0000000000003 41.5366256282956
  endloop
endfacet
facet normal -3.70281751764605e-016 -1.0 4.27822021311274e-015
  outer loop
    vertex 73.9367256300379 30.0 45.2295843437331
    vertex 83.2776695155264 30.0000000000003 41.5366256282956
    vertex 87.3323367417927 30.0000000000001 55.5123729642614
  endloop
endfacet
facet normal -3.70281751764605e-016 -1.0 4.27822021311274e-015
  outer loop
    vertex 73.9367256300379 30.0 45.2295843437331
    vertex 87.3323367417927 30.0000000000001 55.5123729642614
    vertex 77.4653231614085 30.0000000000001 57.3920590418484
  endloop
endfacet
facet normal -3.70281751764605e-016 -1.0 4.27822021311274e-015
  outer loop
    vertex 77.4653231614085 30.0000000000001 57.3920590418484
    vertex 87.3323367417927 30.0000000000001 55.5123729642614
    vertex 88.7000000000003 30.0000000000004 70.0000000000001
  endloop
endfacet
facet normal -3.70281751764605e-016 -1.0 4.27822021311274e-015
  outer loop
    vertex 77.4653231614085 30.0000000000001 57.3920590418484
    vertex 88.7000000000003 30.0000000000004 70.0000000000001
    vertex 78.655539997304 30.0000000000005 70.0
  endloop
endfacet
facet normal -3.70281751764605e-016 -1.0 4.27822021311274e-015
  outer loop
    vertex 78.655539997304 30.0000000000005 70.0
    vertex 88.7000000000003 30.0000000000004 70.0000000000001
    vertex 77.4653231614084 30.0000000000001 82.6079409581518
  endloop
endfacet
facet normal -3.70281751764605e-016 -1.0 4.27822021311274e-015
  outer loop
    vertex 77.4653231614084 30.0000000000001 82.6079409581518
    vertex 88.7000000000003 30.0000000000004 70.0000000000001
    vertex 87.3323367417927 30.0000000000001 84.4876270357387
  endloop
endfacet
facet normal -3.70281751764605e-016 -1.0 4.27822021311274e-015
  outer loop
    vertex 77.4653231614084 30.0000000000001 82.6079409581518
    vertex 87.3323367417927 30.0000000000001 84.4876270357387
    vertex 73.9367256300382 30.0000000000002 94.7704156562669
  endloop
endfacet
facet normal -3.70281751764605e-016 -1.0 4.27822021311274e-015
  outer loop
    vertex 73.9367256300382 30.0000000000002 94.7704156562669
    vertex 87.3323367417927 30.0000000000001 84.4876270357387
    vertex 83.2776695155265 30.0000000000002 98.4633743717045
  endloop
endfacet
facet normal -3.70281751764605e-016 -1.0 4.27822021311274e-015
  outer loop
    vertex 73.9367256300382 30.0000000000002 94.7704156562669
    vertex 83.2776695155265 30.0000000000002 98.4633743717045
    vertex 68.1944205080795 30.0000000000001 106.05769713619
  endloop
endfacet
facet normal -3.70281751764605e-016 -1.0 4.27822021311274e-015
  outer loop
    vertex 68.1944205080795 30.0000000000001 106.05769713619
    vertex 83.2776695155265 30.0000000000002 98.4633743717045
    vertex 76.6792586244472 30.0000000000002 111.433448142775
  endloop
endfacet
facet normal -3.70281751764605e-016 -1.0 4.27822021311274e-015
  outer loop
    vertex 68.1944205080795 30.0000000000001 106.05769713619
    vertex 76.6792586244472 30.0000000000002 111.433448142775
    vertex 60.4412960542224 30.0000000000005 116.070980939403
  endloop
endfacet
facet normal -3.70281751764605e-016 -1.0 4.27822021311274e-015
  outer loop
    vertex 60.4412960542224 30.0000000000005 116.070980939403
    vertex 76.6792586244472 30.0000000000002 111.433448142775
    vertex 67.7702404253638 30.0000000000006 122.939587140845
  endloop
endfacet
facet normal -3.70281751764605e-016 -1.0 4.27822021311274e-015
  outer loop
    vertex 60.4412960542224 30.0000000000005 116.070980939403
    vertex 67.7702404253638 30.0000000000006 122.939587140845
    vertex 50.9512871929337 30.0000000000007 124.456475744921
  endloop
endfacet
facet normal -3.70281751764605e-016 -1.0 4.27822021311274e-015
  outer loop
    vertex 50.9512871929337 30.0000000000007 124.456475744921
    vertex 67.7702404253638 30.0000000000006 122.939587140845
    vertex 56.8653901088409 30.0000000000008 132.575254190341
  endloop
endfacet
facet normal -3.70281751764605e-016 -1.0 4.27822021311274e-015
  outer loop
    vertex 50.9512871929337 30.0000000000007 124.456475744921
    vertex 56.8653901088409 30.0000000000008 132.575254190341
    vertex 41.6069445839402 30.0000000000008 130.0
  endloop
endfacet
facet normal -3.70281751764605e-016 -1.0 4.27822021311274e-015
  outer loop
    vertex 41.6069445839402 30.0000000000008 130.0
    vertex 56.8653901088409 30.0000000000008 132.575254190341
    vertex 10.0000000000003 30.0000000000009 130.0
  endloop
endfacet
facet normal -3.70281751764605e-016 -1.0 4.27822021311274e-015
  outer loop
    vertex 1.80477854883065e-013 30.0 0.0
    vertex 9.99999999999998 30.0000000000005 10.0
    vertex 2.70716782324598e-013 30.0000000000006 140.0
  endloop
endfacet
facet normal -3.70281751764605e-016 -1.0 4.27822021311274e-015
  outer loop
    vertex 9.99999999999998 30.0000000000005 10.0
    vertex 1.80477854883065e-013 30.0 0.0
    vertex 44.3500000000005 30.0000000000002 1.76247905159244e-016
  endloop
endfacet
facet normal -3.70281751764605e-016 -1.0 4.27822021311274e-015
  outer loop
    vertex 9.99999999999998 30.0000000000005 10.0
    vertex 44.3500000000005 30.0000000000002 1.76247905159244e-016
    vertex 56.8653901088409 30.0000000000002 7.42474580965884
  endloop
endfacet
facet normal -3.70281751764605e-016 -1.0 4.27822021311274e-015
  outer loop
    vertex 9.99999999999998 30.0000000000005 10.0
    vertex 56.8653901088409 30.0000000000002 7.42474580965884
    vertex 41.6069445839403 30.0000000000001 9.99999999999999
  endloop
endfacet
facet normal -3.70281751764605e-016 -1.0 4.27822021311274e-015
  outer loop
    vertex 2.70716782324598e-013 30.0000000000006 140.0
    vertex 9.99999999999998 30.0000000000005 10.0
    vertex 10.0000000000003 30.0000000000009 130.0
  endloop
endfacet
facet normal -3.70281751764605e-016 -1.0 4.27822021311274e-015
  outer loop
    vertex 2.70716782324598e-013 30.0000000000006 140.0
    vertex 10.0000000000003 30.0000000000009 130.0
    vertex 56.8653901088409 30.0000000000008 132.575254190341
  endloop
endfacet
facet normal -3.70281751764605e-016 -1.0 4.27822021311274e-015
  outer loop
    vertex 2.70716782324598e-013 30.0000000000006 140.0
    vertex 56.8653901088409 30.0000000000008 132.575254190341
    vertex 44.3500000000002 30.0000000000009 140.0
  endloop
endfacet
facet normal 5.66993775627602e-030 -1.50398212402554e-015 -1.0
  outer loop
    vertex 2.70716782324598e-013 30.0000000000006 140.0
    vertex 44.3500000000002 -14.4999999999988 140.0
    vertex 6.71219026197658e-015 -14.4999999999994 140.0
  endloop
endfacet
facet normal 5.66993775627602e-030 -1.50398212402554e-015 -1.0
  outer loop
    vertex 44.3500000000002 -14.4999999999988 140.0
    vertex 2.70716782324598e-013 30.0000000000006 140.0
    vertex 44.3500000000002 30.0000000000009 140.0
  endloop
endfacet
facet normal -0.588792519888518 -1.42143145630004e-015 -0.808284212714395
  outer loop
    vertex 56.8653901088409 30.0000000000008 132.575254190341
    vertex 44.3500000000002 -14.4999999999988 140.0
    vertex 44.3500000000002 30.0000000000009 140.0
  endloop
endfacet
facet normal -0.510220306215163 -1.45960897348093e-015 -0.860043742565287
  outer loop
    vertex 44.3500000000002 -14.4999999999988 140.0
    vertex 56.8653901088409 30.0000000000008 132.575254190341
    vertex 56.8653901088409 -14.4999999999993 132.575254190341
  endloop
endfacet
facet normal -0.929959787084704 1.51036678180021e-015 0.367661249529199
  outer loop
    vertex 83.2776695155264 30.0000000000003 41.5366256282956
    vertex 82.4959247498276 -14.4999999999997 40.0000000000002
    vertex 83.2776695155261 -14.4999999999997 41.5366256282958
  endloop
endfacet
facet normal -0.891289100092814 1.91061632670935e-015 0.453435486101101
  outer loop
    vertex 82.4959247498276 -14.4999999999997 40.0000000000002
    vertex 83.2776695155264 30.0000000000003 41.5366256282956
    vertex 76.6792586244473 -14.4999999999996 28.5665518572255
  endloop
endfacet
facet normal -0.844728150053894 1.86743961844139e-015 0.535195620784145
  outer loop
    vertex 76.6792586244473 -14.4999999999996 28.5665518572255
    vertex 83.2776695155264 30.0000000000003 41.5366256282956
    vertex 82.4959247498279 30.0 40.0
  endloop
endfacet
facet normal -0.844728150053894 1.86743961844139e-015 0.535195620784145
  outer loop
    vertex 76.6792586244472 30.0000000000001 28.5665518572253
    vertex 76.6792586244473 -14.4999999999996 28.5665518572255
    vertex 82.4959247498279 30.0 40.0
  endloop
endfacet
facet normal -3.97402266427837e-018 4.13595084107028e-015 1.0
  outer loop
    vertex 1.87190045145042e-013 -14.5 1.76764244202789e-013
    vertex 44.3500000000005 30.0000000000002 1.76247905159244e-016
    vertex 1.80477854883065e-013 30.0 0.0
  endloop
endfacet
facet normal -3.97402266427837e-018 4.13595084107028e-015 1.0
  outer loop
    vertex 44.3500000000005 30.0000000000002 1.76247905159244e-016
    vertex 1.87190045145042e-013 -14.5 1.76764244202789e-013
    vertex 44.3500000000002 -14.4999999999994 1.76940492107948e-013
  endloop
endfacet
facet normal -0.995573679154042 7.54216950370004e-016 0.0939843038793391
  outer loop
    vertex 88.7000000000003 30.0000000000004 70.0000000000001
    vertex 87.3323367417928 -14.4999999999997 55.5123729642615
    vertex 88.7000000000003 -14.4999999999997 70.0000000000002
  endloop
endfacet
facet normal -0.98233390124863 9.29596417661054e-016 0.187136598391784
  outer loop
    vertex 87.3323367417928 -14.4999999999997 55.5123729642615
    vertex 88.7000000000003 30.0000000000004 70.0000000000001
    vertex 87.3323367417927 30.0000000000001 55.5123729642614
  endloop
endfacet
facet normal 0.729650411189252 8.4353403671751e-016 0.683820354662945
  outer loop
    vertex 60.4412960542222 -14.4999999999993 116.070980939403
    vertex 50.9512871929337 30.0000000000007 124.456475744921
    vertex 50.9512871929335 -14.4999999999991 124.456475744921
  endloop
endfacet
facet normal 0.588792519888518 1.29597606019469e-015 0.808284212714395
  outer loop
    vertex 50.9512871929337 30.0000000000007 124.456475744921
    vertex 60.4412960542222 -14.4999999999993 116.070980939403
    vertex 60.4412960542224 30.0000000000005 116.070980939403
  endloop
endfacet
facet normal 0.588792519888519 -3.05235160566958e-015 -0.808284212714394
  outer loop
    vertex 50.951287192934 30.0000000000003 15.5435242550795
    vertex 60.4412960542223 -14.4999999999999 23.9290190605969
    vertex 50.9512871929339 -14.4999999999997 15.5435242550797
  endloop
endfacet
facet normal 0.729650411189253 -2.376877766894e-015 -0.683820354662944
  outer loop
    vertex 60.4412960542223 -14.4999999999999 23.9290190605969
    vertex 50.951287192934 30.0000000000003 15.5435242550795
    vertex 60.4412960542224 30.0 23.9290190605967
  endloop
endfacet
facet normal 0.982333901248629 -4.9223140486624e-016 0.187136598391785
  outer loop
    vertex 77.4653231614084 30.0000000000001 82.6079409581518
    vertex 73.9367256300382 -14.4999999999999 94.770415656267
    vertex 77.4653231614084 -14.5 82.6079409581519
  endloop
endfacet
facet normal 0.929959787084704 8.85389592729361e-017 0.3676612495292
  outer loop
    vertex 73.9367256300382 -14.4999999999999 94.770415656267
    vertex 77.4653231614084 30.0000000000001 82.6079409581518
    vertex 73.9367256300382 30.0000000000002 94.7704156562669
  endloop
endfacet
facet normal -0.98233390124863 5.34049870234687e-016 -0.187136598391783
  outer loop
    vertex 87.3323367417928 -14.4999999999997 84.4876270357387
    vertex 88.7000000000003 30.0000000000004 70.0000000000001
    vertex 88.7000000000003 -14.4999999999997 70.0000000000002
  endloop
endfacet
facet normal -0.995573679154042 7.72339708489586e-016 -0.093984303879348
  outer loop
    vertex 88.7000000000003 30.0000000000004 70.0000000000001
    vertex 87.3323367417928 -14.4999999999997 84.4876270357387
    vertex 87.3323367417927 30.0000000000001 84.4876270357387
  endloop
endfacet
facet normal -0.98233390124863 9.29596417661054e-016 0.187136598391784
  outer loop
    vertex 87.3323367417928 -14.4999999999997 55.5123729642615
    vertex 83.2776695155264 30.0000000000003 41.5366256282956
    vertex 83.2776695155261 -14.4999999999997 41.5366256282958
  endloop
endfacet
facet normal -0.929959787084704 1.51036678180021e-015 0.367661249529199
  outer loop
    vertex 83.2776695155264 30.0000000000003 41.5366256282956
    vertex 87.3323367417928 -14.4999999999997 55.5123729642615
    vertex 87.3323367417927 30.0000000000001 55.5123729642614
  endloop
endfacet
facet normal 0.995573679154042 -7.72339708489586e-016 0.0939843038793479
  outer loop
    vertex 78.655539997304 -14.4999999999996 70.0000000000001
    vertex 77.4653231614084 30.0000000000001 82.6079409581518
    vertex 77.4653231614084 -14.5 82.6079409581519
  endloop
endfacet
facet normal 0.982333901248629 -4.9223140486624e-016 0.187136598391785
  outer loop
    vertex 77.4653231614084 30.0000000000001 82.6079409581518
    vertex 78.655539997304 -14.4999999999996 70.0000000000001
    vertex 78.655539997304 30.0000000000005 70.0
  endloop
endfacet
facet normal -1.0 5.55111512312578e-016 1.15825927871265e-016
  outer loop
    vertex 9.9999999999999 -14.4999999999988 130.0
    vertex 9.99999999999998 30.0000000000005 10.0
    vertex 10.0000000000001 -14.4999999999994 10.0000000000002
  endloop
endfacet
facet normal -1.0 5.55111512312578e-016 1.15825927871265e-016
  outer loop
    vertex 9.99999999999998 30.0000000000005 10.0
    vertex 9.9999999999999 -14.4999999999988 130.0
    vertex 10.0000000000003 30.0000000000009 130.0
  endloop
endfacet
facet normal -1.42751741159098e-015 -3.57424257236309e-015 -1.0
  outer loop
    vertex 41.6069445839403 30.0000000000001 9.99999999999999
    vertex 10.0000000000001 -14.4999999999994 10.0000000000002
    vertex 9.99999999999998 30.0000000000005 10.0
  endloop
endfacet
facet normal -1.42751741159098e-015 -3.57424257236309e-015 -1.0
  outer loop
    vertex 10.0000000000001 -14.4999999999994 10.0000000000002
    vertex 41.6069445839403 30.0000000000001 9.99999999999999
    vertex 41.6069445839405 -14.4999999999996 10.0000000000002
  endloop
endfacet
facet normal 0.982333901248629 -7.62322556187254e-016 -0.187136598391784
  outer loop
    vertex 77.4653231614085 30.0000000000001 57.3920590418484
    vertex 78.655539997304 -14.4999999999996 70.0000000000001
    vertex 77.4653231614083 -14.4999999999999 57.3920590418486
  endloop
endfacet
facet normal 0.995573679154042 -6.43194647907488e-016 -0.0939843038793404
  outer loop
    vertex 78.655539997304 -14.4999999999996 70.0000000000001
    vertex 77.4653231614085 30.0000000000001 57.3920590418484
    vertex 78.655539997304 30.0000000000005 70.0
  endloop
endfacet
facet normal -1.36078506150625e-029 2.23701502356059e-015 1.0
  outer loop
    vertex 41.6069445839404 -14.4999999999991 130.0
    vertex 10.0000000000003 30.0000000000009 130.0
    vertex 9.9999999999999 -14.4999999999988 130.0
  endloop
endfacet
facet normal -1.36078506150625e-029 2.23701502356059e-015 1.0
  outer loop
    vertex 10.0000000000003 30.0000000000009 130.0
    vertex 41.6069445839404 -14.4999999999991 130.0
    vertex 41.6069445839402 30.0000000000008 130.0
  endloop
endfacet
facet normal 0.929959787084704 8.85389592729379e-017 0.3676612495292
  outer loop
    vertex 73.9367256300382 30.0000000000002 94.7704156562669
    vertex 68.1944205080793 -14.4999999999996 106.05769713619
    vertex 73.9367256300382 -14.4999999999999 94.770415656267
  endloop
endfacet
facet normal 0.844728150053893 4.59551284370246e-016 0.535195620784146
  outer loop
    vertex 68.1944205080793 -14.4999999999996 106.05769713619
    vertex 73.9367256300382 30.0000000000002 94.7704156562669
    vertex 68.1944205080795 30.0000000000001 106.05769713619
  endloop
endfacet
facet normal -0.58879251988852 2.99659365184498e-015 0.808284212714393
  outer loop
    vertex 56.8653901088411 -14.4999999999995 7.42474580965902
    vertex 44.3500000000005 30.0000000000002 1.76247905159244e-016
    vertex 44.3500000000002 -14.4999999999994 1.76940492107948e-013
  endloop
endfacet
facet normal -0.510220306215163 3.15269908603429e-015 0.860043742565287
  outer loop
    vertex 44.3500000000005 30.0000000000002 1.76247905159244e-016
    vertex 56.8653901088411 -14.4999999999995 7.42474580965902
    vertex 56.8653901088409 30.0000000000002 7.42474580965884
  endloop
endfacet
facet normal 0.844728150053892 4.59551284370247e-016 0.535195620784147
  outer loop
    vertex 68.1944205080795 30.0000000000001 106.05769713619
    vertex 60.4412960542222 -14.4999999999993 116.070980939403
    vertex 68.1944205080793 -14.4999999999996 106.05769713619
  endloop
endfacet
facet normal 0.729650411189252 8.4353403671751e-016 0.683820354662945
  outer loop
    vertex 60.4412960542222 -14.4999999999993 116.070980939403
    vertex 68.1944205080795 30.0000000000001 106.05769713619
    vertex 60.4412960542224 30.0000000000005 116.070980939403
  endloop
endfacet
facet normal -0.929959787084703 1.0661387911316e-016 -0.367661249529202
  outer loop
    vertex 83.2776695155263 -14.4999999999997 98.4633743717046
    vertex 87.3323367417927 30.0000000000001 84.4876270357387
    vertex 87.3323367417928 -14.4999999999997 84.4876270357387
  endloop
endfacet
facet normal -0.98233390124863 5.34049870234688e-016 -0.187136598391783
  outer loop
    vertex 87.3323367417927 30.0000000000001 84.4876270357387
    vertex 83.2776695155263 -14.4999999999997 98.4633743717046
    vertex 83.2776695155265 30.0000000000002 98.4633743717045
  endloop
endfacet
facet normal -0.58879251988852 2.99659365184498e-015 0.808284212714393
  outer loop
    vertex 56.8653901088411 -14.4999999999995 7.42474580965902
    vertex 67.7702404253638 30.0000000000001 17.0604128591551
    vertex 56.8653901088409 30.0000000000002 7.42474580965884
  endloop
endfacet
facet normal -0.729650411189255 2.32111981306941e-015 0.683820354662941
  outer loop
    vertex 67.7702404253638 30.0000000000001 17.0604128591551
    vertex 56.8653901088411 -14.4999999999995 7.42474580965902
    vertex 67.7702404253639 -14.4999999999998 17.0604128591553
  endloop
endfacet
facet normal 1.0 -2.25597318603831e-015 1.50484697861106e-016
  outer loop
    vertex 1.80477854883065e-013 30.0 0.0
    vertex 6.71219026197658e-015 -14.4999999999994 140.0
    vertex 1.87190045145042e-013 -14.5 1.76764244202789e-013
  endloop
endfacet
facet normal 1.0 -2.25597318603831e-015 1.50484697861106e-016
  outer loop
    vertex 6.71219026197658e-015 -14.4999999999994 140.0
    vertex 1.80477854883065e-013 30.0 0.0
    vertex 2.70716782324598e-013 30.0000000000006 140.0
  endloop
endfacet
facet normal -0.729650411189255 -1.16414227120896e-015 -0.683820354662941
  outer loop
    vertex 67.7702404253638 -14.4999999999993 122.939587140845
    vertex 76.6792586244472 30.0000000000002 111.433448142775
    vertex 76.6792586244474 -14.4999999999997 111.433448142775
  endloop
endfacet
facet normal -0.844728150053892 -5.15309238194849e-016 -0.535195620784147
  outer loop
    vertex 76.6792586244472 30.0000000000002 111.433448142775
    vertex 67.7702404253638 -14.4999999999993 122.939587140845
    vertex 67.7702404253638 30.0000000000006 122.939587140845
  endloop
endfacet
facet normal -0.844728150053894 1.86743961844139e-015 0.535195620784145
  outer loop
    vertex 76.6792586244473 -14.4999999999996 28.5665518572255
    vertex 67.7702404253638 30.0000000000001 17.0604128591551
    vertex 67.7702404253639 -14.4999999999998 17.0604128591553
  endloop
endfacet
facet normal -0.729650411189255 2.32111981306941e-015 0.683820354662941
  outer loop
    vertex 67.7702404253638 30.0000000000001 17.0604128591551
    vertex 76.6792586244473 -14.4999999999996 28.5665518572255
    vertex 76.6792586244472 30.0000000000001 28.5665518572253
  endloop
endfacet
facet normal -0.588792519888518 -1.42143145630004e-015 -0.808284212714395
  outer loop
    vertex 56.8653901088409 30.0000000000008 132.575254190341
    vertex 67.7702404253638 -14.4999999999993 122.939587140845
    vertex 56.8653901088409 -14.4999999999993 132.575254190341
  endloop
endfacet
facet normal -0.729650411189255 -1.16414227120896e-015 -0.683820354662941
  outer loop
    vertex 67.7702404253638 -14.4999999999993 122.939587140845
    vertex 56.8653901088409 30.0000000000008 132.575254190341
    vertex 67.7702404253638 30.0000000000006 122.939587140845
  endloop
endfacet
facet normal -0.844728150053892 -5.15309238194849e-016 -0.535195620784147
  outer loop
    vertex 76.6792586244472 30.0000000000002 111.433448142775
    vertex 83.2776695155263 -14.4999999999997 98.4633743717046
    vertex 76.6792586244474 -14.4999999999997 111.433448142775
  endloop
endfacet
facet normal -0.929959787084703 1.0661387911316e-016 -0.367661249529202
  outer loop
    vertex 83.2776695155263 -14.4999999999997 98.4633743717046
    vertex 76.6792586244472 30.0000000000002 111.433448142775
    vertex 83.2776695155265 30.0000000000002 98.4633743717045
  endloop
endfacet
facet normal -4.62909673239764e-016 1.0 -3.63349786004697e-015
  outer loop
    vertex 1.87190045145042e-013 -14.5 1.76764244202789e-013
    vertex 10.0000000000001 -14.4999999999994 10.0000000000002
    vertex 44.3500000000002 -14.4999999999994 1.76940492107948e-013
  endloop
endfacet
facet normal -4.62909673239764e-016 1.0 -3.63349786004697e-015
  outer loop
    vertex 10.0000000000001 -14.4999999999994 10.0000000000002
    vertex 1.87190045145042e-013 -14.5 1.76764244202789e-013
    vertex 6.71219026197658e-015 -14.4999999999994 140.0
  endloop
endfacet
facet normal -4.62909673239764e-016 1.0 -3.63349786004697e-015
  outer loop
    vertex 44.3500000000002 -14.4999999999994 1.76940492107948e-013
    vertex 10.0000000000001 -14.4999999999994 10.0000000000002
    vertex 56.8653901088411 -14.4999999999995 7.42474580965902
  endloop
endfacet
facet normal -4.62909673239764e-016 1.0 -3.63349786004697e-015
  outer loop
    vertex 56.8653901088411 -14.4999999999995 7.42474580965902
    vertex 10.0000000000001 -14.4999999999994 10.0000000000002
    vertex 41.6069445839405 -14.4999999999996 10.0000000000002
  endloop
endfacet
facet normal -4.62909673239764e-016 1.0 -3.63349786004697e-015
  outer loop
    vertex 10.0000000000001 -14.4999999999994 10.0000000000002
    vertex 6.71219026197658e-015 -14.4999999999994 140.0
    vertex 9.9999999999999 -14.4999999999988 130.0
  endloop
endfacet
facet normal -4.62909673239764e-016 1.0 -3.63349786004697e-015
  outer loop
    vertex 9.9999999999999 -14.4999999999988 130.0
    vertex 6.71219026197658e-015 -14.4999999999994 140.0
    vertex 41.6069445839404 -14.4999999999991 130.0
  endloop
endfacet
facet normal -4.62909673239764e-016 1.0 -3.63349786004697e-015
  outer loop
    vertex 41.6069445839404 -14.4999999999991 130.0
    vertex 6.71219026197658e-015 -14.4999999999994 140.0
    vertex 56.8653901088409 -14.4999999999993 132.575254190341
  endloop
endfacet
facet normal -4.62909673239764e-016 1.0 -3.63349786004697e-015
  outer loop
    vertex 56.8653901088409 -14.4999999999993 132.575254190341
    vertex 6.71219026197658e-015 -14.4999999999994 140.0
    vertex 44.3500000000002 -14.4999999999988 140.0
  endloop
endfacet
facet normal -4.62909673239764e-016 1.0 -3.63349786004697e-015
  outer loop
    vertex 41.6069445839405 -14.4999999999996 10.0000000000002
    vertex 67.7702404253639 -14.4999999999998 17.0604128591553
    vertex 56.8653901088411 -14.4999999999995 7.42474580965902
  endloop
endfacet
facet normal -4.62909673239764e-016 1.0 -3.63349786004697e-015
  outer loop
    vertex 67.7702404253639 -14.4999999999998 17.0604128591553
    vertex 41.6069445839405 -14.4999999999996 10.0000000000002
    vertex 50.9512871929339 -14.4999999999997 15.5435242550797
  endloop
endfacet
facet normal -4.62909673239764e-016 1.0 -3.63349786004697e-015
  outer loop
    vertex 67.7702404253639 -14.4999999999998 17.0604128591553
    vertex 50.9512871929339 -14.4999999999997 15.5435242550797
    vertex 60.4412960542223 -14.4999999999999 23.9290190605969
  endloop
endfacet
facet normal -4.62909673239764e-016 1.0 -3.63349786004697e-015
  outer loop
    vertex 67.7702404253639 -14.4999999999998 17.0604128591553
    vertex 60.4412960542223 -14.4999999999999 23.9290190605969
    vertex 76.6792586244473 -14.4999999999996 28.5665518572255
  endloop
endfacet
facet normal -4.62909673239764e-016 1.0 -3.63349786004697e-015
  outer loop
    vertex 76.6792586244473 -14.4999999999996 28.5665518572255
    vertex 60.4412960542223 -14.4999999999999 23.9290190605969
    vertex 68.1944205080791 -14.4999999999997 33.9423028638099
  endloop
endfacet
facet normal -4.62909673239764e-016 1.0 -3.63349786004697e-015
  outer loop
    vertex 76.6792586244473 -14.4999999999996 28.5665518572255
    vertex 68.1944205080791 -14.4999999999997 33.9423028638099
    vertex 82.4959247498276 -14.4999999999997 40.0000000000002
  endloop
endfacet
facet normal -4.62909673239764e-016 1.0 -3.63349786004697e-015
  outer loop
    vertex 82.4959247498276 -14.4999999999997 40.0000000000002
    vertex 68.1944205080791 -14.4999999999997 33.9423028638099
    vertex 71.2762206168381 -14.4999999999998 40.0000000000001
  endloop
endfacet
facet normal -4.62909673239764e-016 1.0 -3.63349786004697e-015
  outer loop
    vertex 82.4959247498276 -14.4999999999997 40.0000000000002
    vertex 71.2762206168381 -14.4999999999998 40.0000000000001
    vertex 73.9367256300381 -14.4999999999999 45.2295843437332
  endloop
endfacet
facet normal -4.62909673239764e-016 1.0 -3.63349786004697e-015
  outer loop
    vertex 82.4959247498276 -14.4999999999997 40.0000000000002
    vertex 73.9367256300381 -14.4999999999999 45.2295843437332
    vertex 83.2776695155261 -14.4999999999997 41.5366256282958
  endloop
endfacet
facet normal -4.62909673239764e-016 1.0 -3.63349786004697e-015
  outer loop
    vertex 83.2776695155261 -14.4999999999997 41.5366256282958
    vertex 73.9367256300381 -14.4999999999999 45.2295843437332
    vertex 87.3323367417928 -14.4999999999997 55.5123729642615
  endloop
endfacet
facet normal -4.62909673239764e-016 1.0 -3.63349786004697e-015
  outer loop
    vertex 87.3323367417928 -14.4999999999997 55.5123729642615
    vertex 73.9367256300381 -14.4999999999999 45.2295843437332
    vertex 77.4653231614083 -14.4999999999999 57.3920590418486
  endloop
endfacet
facet normal -4.62909673239764e-016 1.0 -3.63349786004697e-015
  outer loop
    vertex 87.3323367417928 -14.4999999999997 55.5123729642615
    vertex 77.4653231614083 -14.4999999999999 57.3920590418486
    vertex 88.7000000000003 -14.4999999999997 70.0000000000002
  endloop
endfacet
facet normal -4.62909673239764e-016 1.0 -3.63349786004697e-015
  outer loop
    vertex 88.7000000000003 -14.4999999999997 70.0000000000002
    vertex 77.4653231614083 -14.4999999999999 57.3920590418486
    vertex 78.655539997304 -14.4999999999996 70.0000000000001
  endloop
endfacet
facet normal -4.62909673239764e-016 1.0 -3.63349786004697e-015
  outer loop
    vertex 88.7000000000003 -14.4999999999997 70.0000000000002
    vertex 78.655539997304 -14.4999999999996 70.0000000000001
    vertex 77.4653231614084 -14.5 82.6079409581519
  endloop
endfacet
facet normal -4.62909673239764e-016 1.0 -3.63349786004697e-015
  outer loop
    vertex 88.7000000000003 -14.4999999999997 70.0000000000002
    vertex 77.4653231614084 -14.5 82.6079409581519
    vertex 87.3323367417928 -14.4999999999997 84.4876270357387
  endloop
endfacet
facet normal -4.62909673239764e-016 1.0 -3.63349786004697e-015
  outer loop
    vertex 87.3323367417928 -14.4999999999997 84.4876270357387
    vertex 77.4653231614084 -14.5 82.6079409581519
    vertex 73.9367256300382 -14.4999999999999 94.770415656267
  endloop
endfacet
facet normal -4.62909673239764e-016 1.0 -3.63349786004697e-015
  outer loop
    vertex 87.3323367417928 -14.4999999999997 84.4876270357387
    vertex 73.9367256300382 -14.4999999999999 94.770415656267
    vertex 83.2776695155263 -14.4999999999997 98.4633743717046
  endloop
endfacet
facet normal -4.62909673239764e-016 1.0 -3.63349786004697e-015
  outer loop
    vertex 83.2776695155263 -14.4999999999997 98.4633743717046
    vertex 73.9367256300382 -14.4999999999999 94.770415656267
    vertex 68.1944205080793 -14.4999999999996 106.05769713619
  endloop
endfacet
facet normal -4.62909673239764e-016 1.0 -3.63349786004697e-015
  outer loop
    vertex 83.2776695155263 -14.4999999999997 98.4633743717046
    vertex 68.1944205080793 -14.4999999999996 106.05769713619
    vertex 76.6792586244474 -14.4999999999997 111.433448142775
  endloop
endfacet
facet normal -4.62909673239764e-016 1.0 -3.63349786004697e-015
  outer loop
    vertex 76.6792586244474 -14.4999999999997 111.433448142775
    vertex 68.1944205080793 -14.4999999999996 106.05769713619
    vertex 60.4412960542222 -14.4999999999993 116.070980939403
  endloop
endfacet
facet normal -4.62909673239764e-016 1.0 -3.63349786004697e-015
  outer loop
    vertex 76.6792586244474 -14.4999999999997 111.433448142775
    vertex 60.4412960542222 -14.4999999999993 116.070980939403
    vertex 67.7702404253638 -14.4999999999993 122.939587140845
  endloop
endfacet
facet normal -4.62909673239764e-016 1.0 -3.63349786004697e-015
  outer loop
    vertex 67.7702404253638 -14.4999999999993 122.939587140845
    vertex 60.4412960542222 -14.4999999999993 116.070980939403
    vertex 50.9512871929335 -14.4999999999991 124.456475744921
  endloop
endfacet
facet normal -4.62909673239764e-016 1.0 -3.63349786004697e-015
  outer loop
    vertex 67.7702404253638 -14.4999999999993 122.939587140845
    vertex 50.9512871929335 -14.4999999999991 124.456475744921
    vertex 56.8653901088409 -14.4999999999993 132.575254190341
  endloop
endfacet
facet normal -4.62909673239764e-016 1.0 -3.63349786004697e-015
  outer loop
    vertex 56.8653901088409 -14.4999999999993 132.575254190341
    vertex 50.9512871929335 -14.4999999999991 124.456475744921
    vertex 41.6069445839404 -14.4999999999991 130.0
  endloop
endfacet
endsolid handle
